<?xml version="1.0" encoding="UTF-8" standalone="no"?>
<!-- Created with Inkscape (http://www.inkscape.org/) -->

<svg
   version="1.1"
   id="svg1"
   width="1824.7288"
   height="600"
   viewBox="0 0 1824.7288 600"
   sodipodi:docname="lazyfossil_logo.svg"
   inkscape:version="1.4 (e7c3feb100, 2024-10-09)"
   xmlns:inkscape="http://www.inkscape.org/namespaces/inkscape"
   xmlns:sodipodi="http://sodipodi.sourceforge.net/DTD/sodipodi-0.dtd"
   xmlns="http://www.w3.org/2000/svg"
   xmlns:svg="http://www.w3.org/2000/svg">
  <defs
     id="defs1" />
  <sodipodi:namedview
     id="namedview1"
     pagecolor="#ffffff"
     bordercolor="#000000"
     borderopacity="0.25"
     inkscape:showpageshadow="2"
     inkscape:pageopacity="0.0"
     inkscape:pagecheckerboard="0"
     inkscape:deskcolor="#d1d1d1"
     inkscape:zoom="0.45956302"
     inkscape:cx="802.93667"
     inkscape:cy="133.82278"
     inkscape:window-width="1920"
     inkscape:window-height="1017"
     inkscape:window-x="0"
     inkscape:window-y="26"
     inkscape:window-maximized="1"
     inkscape:current-layer="g1" />
  <g
     inkscape:groupmode="layer"
     inkscape:label="Image"
     id="g1"
     transform="translate(-264.46375,-243.28322)">
    <rect
       style="fill:#212434;fill-opacity:1;stroke-width:0.997352"
       id="rect46"
       width="900"
       height="600"
       x="264.46375"
       y="243.28322" />
    <g
       id="g43"
       style="fill:#8a99ab;fill-opacity:1"
       transform="translate(13.116075,0.63797695)">
      <path
         style="fill:#8a99ab;fill-opacity:1"
         d="m 938.85516,516.82572 c -6.4307,-2.57943 -14.63,-3.32408 -21.9619,-1.99455 -8.969,1.6264 -9.6728,0.77429 -8.1217,-9.83383 0.6445,-4.40764 0.904,-10.1841 0.5766,-12.83658 -0.7882,-6.38683 1.5558,-10.10513 9.6806,-15.35647 10.9729,-7.09215 23.304,-9.21944 26.3646,-4.5483 4.1265,6.29782 7.3814,39.12689 4.4267,44.64782 -1.2839,2.39885 -4.8529,2.37343 -10.9649,-0.0781 z"
         id="path43" />
      <path
         style="fill:#8a99ab;fill-opacity:1"
         d="m 912.53876,575.55761 c -4.2441,-6.63468 -10.8594,-12.50183 -18.0854,-16.04004 -7.2899,-3.56953 -7.4006,-5.74995 -0.7546,-14.86606 2.6639,-3.65405 5.4051,-7.99953 6.0915,-9.65662 1.4591,-3.52266 7.0199,-6.15682 12.9972,-6.15682 6.3111,0 18.8443,2.75109 24.6573,5.41235 7.6516,3.50303 8.3962,5.64332 4.9661,14.27436 -5.6052,14.10392 -19.2004,32.31329 -24.1253,32.31329 -1.7663,0 -3.2281,-1.34315 -5.7468,-5.28046 z"
         id="path42" />
      <path
         style="fill:#8a99ab;fill-opacity:1"
         d="m 479.85516,606.14929 c -4.125,-0.82956 -13.6083,-1.57645 -21.0741,-1.65975 l -13.5741,-0.15147 -8.5597,-4.24088 c -17.5639,-8.70196 -27.7484,-25.27192 -27.7802,-45.19763 -0.01,-5.3559 0.9711,-11.143 3.4989,-20.66998 4.3743,-16.48633 5.1383,-20.51032 6.4644,-34.04886 3.4722,-35.44772 8.7072,-53.16393 21.2289,-71.84265 18.7269,-27.93487 56.1649,-47.48397 90.9602,-47.4968 l 8.6642,-0.003 3.2117,-5.25 c 7.7224,-12.6232 24.1324,-29.42086 38.9598,-39.87998 16.9418,-11.95054 19.9455,-12.36363 22.592,-3.10703 2.6156,9.14855 7.7124,19.16089 13.7812,27.07227 4.6084,6.00757 5.6268,8.03746 5.6268,11.21482 0,2.88821 0.5241,4.16003 2.051,4.97717 1.7042,0.91208 3.3524,0.38979 9.75,-3.08959 9.5082,-5.17114 11.199,-6.61867 11.199,-9.58752 0,-1.76537 -1.0435,-2.84201 -4.25,-4.38487 -5.1244,-2.46574 -9.4906,-8.14874 -14.8635,-19.34612 -8.2741,-17.24362 -7.4101,-26.31746 3.0044,-31.55166 12.6824,-6.37407 36.9239,-14.06749 44.3258,-14.06749 5.3943,0 5.6644,0.81942 5.0641,15.36157 -0.5503,13.32763 -0.4524,14.05972 3.9389,29.46179 1.0679,3.74552 1.002,4.72535 -0.4935,7.33104 -2.136,3.72182 -2.17,5.23235 -0.1553,6.90439 1.2857,1.06701 3.2373,1.07306 10.75,0.0333 13.9307,-1.92798 16.6967,-4.89127 10.8167,-11.58817 -3.969,-4.52051 -6.6522,-15.52515 -6.5842,-27.00393 0.064,-10.81686 3.032,-18.64197 8.5683,-22.59052 3.2564,-2.32251 3.9558,-2.40414 19.3783,-2.26156 24.4844,0.22635 30.5331,2.77281 26.8151,11.28891 -4.2818,9.80763 -5.5954,15.8142 -6.0689,27.7503 -0.4451,11.22207 -0.672,12.36429 -2.8648,14.42431 -2.5854,2.42885 -3.1222,6.05376 -1.1314,7.63896 0.6875,0.54741 5.6523,1.81281 11.0327,2.81199 l 9.7827,1.81671 2.1854,-2.18539 c 2.1477,-2.14773 2.154,-2.23849 0.3655,-5.26613 -5.3911,-9.12642 -0.6974,-35.93737 7.7746,-44.40938 4.7668,-4.76681 13.1056,-2.73278 35.5854,8.68013 11.3302,5.75231 16.0237,9.40215 16.0237,12.4605 0,0.85102 -1.9125,3.67486 -4.25,6.27521 -5.0248,5.58983 -9.1866,12.95447 -12.7086,22.48904 -1.9493,5.27679 -3.2689,7.31603 -5.5494,8.57555 -5.4634,3.01744 -4.5323,5.32742 4.1976,10.41419 11.0064,6.41328 13.535,6.07816 14.5488,-1.92815 1.367,-10.79616 11.2768,-27.11408 18.842,-31.02624 5.7028,-2.94903 8.0555,-2.06067 19.605,7.40292 12.298,10.07678 29.8527,27.79344 31.293,31.58162 1.4632,3.8486 0.1045,5.99579 -6.6413,10.49539 -3.9369,2.626 -8.231,6.81092 -11.8886,11.58623 -4.6625,6.08735 -6.2343,7.47541 -8.4646,7.47541 -1.5064,0 -3.3119,0.69034 -4.0121,1.53409 -1.659,1.99888 -0.4181,4.35465 5.9322,11.26197 6.0977,6.63271 9.0027,6.95496 11.5607,1.28242 3.2578,-7.2246 17.7191,-19.92172 24.5744,-21.5765 5.1213,-1.23622 7.6695,0.94446 16.0481,13.7331 8.3457,12.73852 17.9241,30.72347 17.8975,33.60545 -0.028,3.03155 -1.6145,4.25268 -7.5337,5.79839 -8.3627,2.18382 -13.05,4.83699 -19.6252,11.10872 -4.5974,4.38511 -6.2705,5.40049 -8.2695,5.01837 -1.6551,-0.3164 -3.0925,0.16906 -4.2334,1.42974 -1.4575,1.61054 -1.6867,3.65995 -1.4668,13.11604 0.5704,24.52171 -7.1023,43.55664 -25.1322,62.35013 -20.857,21.74024 -56.33,37.7845 -102.2239,46.23531 -25.9237,4.77356 -35.9461,5.36766 -98.4402,5.83521 -62.8222,0.47001 -73.7264,-0.0298 -83.33,-3.81989 -2.8764,-1.13515 -7.9298,-2.67192 -11.2298,-3.41504 l -6,-1.35114 -7.6268,3.91335 c -10.2724,5.27082 -26.3114,10.51902 -37.8732,12.39269 -11.9947,1.94385 -33.9829,1.87329 -44,-0.14119 z m 40.0977,-11.7698 c 12.3287,-1.85847 27.5049,-6.95889 37.4815,-12.59681 9.3771,-5.29912 24.7237,-20.0014 28.4498,-27.25534 2.0903,-4.06945 3.5497,-5.37836 9.471,-8.49449 9.7377,-5.12445 21.2693,-16.32405 25.9193,-25.1731 15.9592,-30.37039 6.7399,-71.63737 -22.3273,-99.94026 -12.8762,-12.53763 -29.2764,-21.45493 -47.092,-25.60535 -11.6804,-2.72114 -30.834,-2.33497 -43.2058,0.8711 -19.1954,4.97438 -36.2584,15.00477 -49.5713,29.14014 -8.8592,9.40656 -14.4315,18.26961 -19.5207,31.04881 -4.2613,10.70039 -6.1698,19.96457 -8.1713,39.66588 -1.7173,16.90381 -3.3904,25.85175 -7.722,41.298 -5.6084,19.9993 -3.6937,31.20492 7.3489,43.00951 7.4008,7.91141 15.5271,11.85894 24.3422,11.82474 7.5419,-0.0293 11.5772,-1.75346 18.7082,-7.99366 7.4589,-6.52705 13.4353,-9.67181 24.3138,-12.79364 18.6328,-5.34713 28.2474,-12.32231 34.5248,-25.04695 2.5565,-5.18224 3.9726,-7 5.4532,-7 4.8389,0 1.8268,13.11936 -5.2052,22.67165 -5.7676,7.83469 -13.9959,13.06201 -26.7566,16.99799 -11.801,3.63999 -16.2114,5.72656 -21.0103,9.94009 -6.5428,5.74461 -5.1006,6.4139 14.4721,6.71627 5.775,0.0892 14.819,-0.48885 20.0977,-1.28458 z m -68.03,-28.41499 c -3.9028,-7.29245 3.05,-21.27498 9.6933,-19.49368 4.011,1.07549 3.8776,4.75763 -0.4777,13.18678 -4.232,8.19052 -7.1418,10.18189 -9.2156,6.3069 z m 89.6943,-51.01072 c -10.6006,-3.49509 -21.5117,-12.32904 -25.4634,-20.6158 -2.4437,-5.12444 -0.7509,-6.30163 4.8325,-3.36063 6.0297,3.17612 16.6083,3.23034 22.5118,0.11537 5.9558,-3.14255 11.7659,-10.48241 16.0327,-20.25404 5.3096,-12.15984 8.1354,-16.14565 13.2932,-18.75061 2.4503,-1.2375 5.1472,-2.24832 5.9931,-2.24626 3.5555,0.009 8.2206,4.1532 10.6514,9.46273 9.3726,20.47234 1.1611,44.29797 -18.5241,53.74811 -8.5232,4.09165 -20.3568,4.85876 -29.3272,1.90113 z m 134.0903,68.02644 c 14.9874,-4.49656 22.4327,-9.91322 27.348,-19.89659 2.7834,-5.65337 3.2997,-7.80089 3.2997,-13.72384 0,-16.61921 -12.6301,-30.52172 -27.7284,-30.52172 -10.4377,0 -16.0715,3.83288 -24.2358,16.48856 -5.9295,9.19152 -10.1079,13.0175 -19.4997,17.8554 -6.8658,3.53663 -14.2052,5.78918 -25.0361,7.68378 -19.0968,3.34055 -28.9833,19.57027 -14.5813,23.93669 1.7361,0.52636 18.3614,0.81401 38.0813,0.65888 32.752,-0.25763 35.4723,-0.417 42.3523,-2.48116 z m 173.1507,-35.64501 c 4.0751,-3.97922 5.3621,-6.80345 6.5282,-14.32504 0.369,-2.38034 2.1957,-7.62808 4.0594,-11.66165 16.3068,-35.29406 16.9847,-66.69229 1.8026,-83.49708 -4.9887,-5.52183 -10.6626,-8.01337 -18.2487,-8.01337 -7.8268,0 -12.3385,2.19754 -18.4365,8.97997 -5.6909,6.32962 -8.1721,13.18924 -8.1459,22.52003 0.018,6.39583 0.5054,8.03572 5.6471,19 7.8925,16.83019 11.2443,34.9037 7.2194,38.92857 -0.8643,0.86429 -1.7874,1.57143 -2.0515,1.57143 -0.264,0 -5.9694,-2.8961 -12.6786,-6.43579 -19.6276,-10.3553 -33.3116,-12.7609 -48.5572,-8.53614 -9.8659,2.73399 -15.7954,5.88921 -22.3846,11.91139 -8.7625,8.00844 -10.9851,14.92298 -6.3021,19.60599 2.3878,2.3878 2.8623,2.45455 17.4488,2.45455 8.2468,0 20.3048,0.68119 26.7954,1.51377 15.3638,1.97074 42.7045,7.13089 47.8012,9.02175 2.378,0.88221 6.3393,1.35224 9.7686,1.15909 5.1462,-0.28986 6.1964,-0.74271 9.7344,-4.19747 z m -160.7575,-47.24714 c 7.1543,-8.04946 10.3243,-36.75407 6.3542,-57.5391 -3.8152,-19.97419 -13.8867,-40.27246 -27.0168,-54.45001 -9.1462,-9.87593 -13.7588,-10.38432 -26.4264,-2.91265 -4.8631,2.8684 -8.1565,6.77359 -8.1565,9.67169 0,0.61559 4.3951,5.70044 9.7669,11.29966 22.3402,23.28611 33.8294,49.42825 35.7907,81.43687 0.3284,5.35895 1.0883,10.75604 1.6887,11.99354 1.3385,2.75871 5.7467,3.03425 7.9992,0.5 z m 33.667,-7.90122 c 3.2349,-2.26584 8.7692,-14.64984 11.7219,-26.22989 3.452,-13.53845 4.2086,-31.96732 1.9107,-46.53999 -3.9147,-24.82624 -17.6282,-51.94553 -27.2395,-53.8678 -3.3585,-0.6717 -13.388,0.55439 -17.4546,2.13381 -3.0065,1.16763 -5.851,4.74497 -5.851,7.3583 0,0.96701 2.2017,5.03559 4.8927,9.04128 10.3281,15.37415 18.2937,34.40329 22.7113,54.25551 1.3786,6.19524 1.817,13.055 1.9432,30.4074 0.1488,20.47745 0.321,22.52304 1.999,23.75 2.3216,1.69762 2.5181,1.68632 5.3663,-0.30862 z m 35.6686,-10.83887 c 3.7288,-3.72884 12.0389,-21.7337 15.0048,-32.50991 2.1843,-7.93632 2.6977,-12.29817 3.1192,-26.5 0.4672,-15.7412 0.3117,-17.85058 -2.0989,-28.48698 -4.4482,-19.62715 -7.9589,-24.46286 -19.6062,-27.00572 -7.3737,-1.60986 -10.8943,-1.05621 -13.2246,2.07972 l -1.9225,2.58702 4.1622,9.74189 c 2.2892,5.35804 5.5519,14.99389 7.2504,21.41298 2.9796,11.26078 3.0903,12.42695 3.1473,33.17109 0.056,20.32083 -0.8902,30.14173 -4.0126,41.65755 -0.3888,1.43366 0.117,2.85959 1.5074,4.25 2.6911,2.69107 3.6414,2.63444 6.6735,-0.39764 z m 31.1988,-7.06828 c 3.2302,-2.26252 9.8865,-12.4528 14.3353,-21.94622 6.1572,-13.13919 9.1625,-27.31773 9.2193,-43.49541 0.058,-16.47728 -0.8978,-19.11461 -8.6037,-23.74145 -6.4273,-3.85921 -9.9065,-4.77002 -12.6376,-3.3084 -2.5301,1.35408 -2.6446,4.28002 -0.6084,15.54985 3.4978,19.35914 1.1889,40.79086 -7.6863,71.34401 -1.1499,3.95865 -1.0912,4.46873 0.661,5.75 2.4029,1.75705 2.6025,1.75133 5.3204,-0.15238 z"
         id="path41" />
      <path
         style="fill:#8a99ab;fill-opacity:1"
         d="m 861.89036,610.90381 c -0.5693,-1.06384 -1.0395,-2.75134 -1.0449,-3.75 -0.017,-3.08699 -4.6146,-11.89417 -8.3931,-16.0765 -5.3059,-5.87299 -4.6509,-8.69539 2.9047,-12.516 1.651,-0.83486 6.5158,-4.03913 10.8107,-7.12059 10.3032,-7.39218 12.1819,-7.40311 21.4836,-0.12502 11.7138,9.16537 17.3033,18.67692 13.9632,23.76069 -2.0028,3.04832 -15.056,10.3875 -25.6355,14.41352 -10.0154,3.81137 -12.6634,4.07711 -14.0887,1.4139 z"
         id="path40" />
      <path
         style="fill:#8a99ab;fill-opacity:1"
         d="m 805.93956,623.67358 c -1.6695,-0.61759 -2.0844,-1.62637 -2.0844,-5.06809 0,-2.38652 -0.8892,-5.95615 -2,-8.0286 -2.2896,-4.27203 -2.5556,-7.26118 -0.75,-8.4298 3.1319,-2.02696 28.6037,-10.59652 31.5755,-10.62302 3.8916,-0.0347 6.3598,2.56516 11.1118,11.70447 3.7964,7.30138 4.0992,12.89518 0.8127,15.01415 -3.9935,2.57489 -34.7196,6.89061 -38.6656,5.43089 z"
         id="path39" />
      <path
         style="fill:#8a99ab;fill-opacity:1"
         d="m 744.18406,623.65278 c -5.1616,-2.49615 -3.1559,-10.25154 2.9136,-11.26539 1.7916,-0.29928 8.8825,-1.48599 15.7575,-2.63712 20.3787,-3.41217 20.4946,-3.41766 22.8304,-1.08183 2.9498,2.9498 4.5724,9.5387 3.0574,12.41545 -0.653,1.2398 -1.6823,2.58479 -2.2875,2.98887 -1.7282,1.15396 -39.7988,0.77571 -42.2714,-0.41998 z"
         id="path38" />
    </g>
    <g
       id="g45"
       style="fill:#515b6c;fill-opacity:1"
       transform="translate(13.116075,0.63797695)">
      <path
         style="fill:#515b6c;fill-opacity:1"
         d="m 977.92776,692.20321 c -5.9006,-7.50147 2.9365,-17.24963 10.7049,-11.80844 2.9386,2.05824 3.191,10.25686 0.3938,12.78831 -2.9251,2.64721 -8.6427,2.14242 -11.0987,-0.97987 z"
         id="path37" />
      <path
         style="fill:#515b6c;fill-opacity:1"
         d="m 1031.1034,769.68618 c -1.8627,-1.86267 -1.6141,-9.49371 0.3336,-10.24112 0.87,-0.33384 5.37,-0.60699 10,-0.60699 h 8.4182 v -33.5 -33.5 h -7.8775 c -9.2243,0 -10.3893,-0.84161 -9.9336,-7.17609 l 0.3111,-4.32391 12.6037,-0.27878 c 11.2307,-0.24842 12.8647,-0.0675 15,1.6608 l 2.3963,1.9396 0.2848,37.58919 0.2848,37.58919 h 8.7652 c 9.7032,0 11.1737,0.71877 11.1499,5.45 -0.031,6.11993 0.3735,6.02198 -26.1988,6.34811 -18.4095,0.22595 -24.5918,-0.004 -25.5377,-0.95 z"
         id="path34" />
      <path
         style="fill:#515b6c;fill-opacity:1"
         d="m 961.10416,769.68699 c -1.5918,-1.59175 -1.6246,-8.07323 -0.049,-9.64892 0.7251,-0.72501 4.2402,-1.2 8.8806,-1.2 h 7.6805 l 0.7214,-10.5833 c 0.3968,-5.82081 0.402,-15.04581 0.012,-20.5 l -0.7098,-9.9167 h -6.3103 c -8.9531,0 -9.474,-0.3347 -9.474,-6.08794 0,-6.00065 0.6448,-6.24748 15.0378,-5.75739 14.6713,0.49956 13.9622,-0.97102 13.9622,28.95611 v 23.88922 h 7.8 c 4.73344,0 8.27184,0.4718 9.00004,1.2 1.8897,1.88963 1.5096,8.56524 -0.55,9.65911 -2.8287,1.50243 -44.49764,1.4932 -46.00104,-0.0102 z"
         id="path33" />
      <path
         style="fill:#515b6c;fill-opacity:1"
         d="m 893.58966,769.74999 c -5.0623,-1.19267 -11.7005,-4.65984 -12.3971,-6.47509 -0.8873,-2.31239 1.6932,-7.40642 4.0518,-7.99839 1.1748,-0.29485 4.169,0.36322 6.6538,1.46237 8.8825,3.92918 25.1119,3.94431 29.0291,0.0271 2.4761,-2.47607 2.4729,-7.12473 -0.01,-9.36845 -1.1249,-1.01796 -6.879,-2.77978 -13.75,-4.21006 -20.2802,-4.22149 -24.8303,-7.74049 -24.7954,-19.17629 0.026,-8.55197 2.1786,-12.3459 8.9067,-15.69862 4.3881,-2.1867 6.2592,-2.4745 16.0878,-2.4745 10.7594,0 20.1522,1.70773 23.2351,4.22448 1.8313,1.49486 1.5246,6.21496 -0.572,8.80411 l -1.8221,2.25017 -6.1819,-2.13938 c -4.2722,-1.47849 -8.5748,-2.13483 -13.9279,-2.12464 -9.6323,0.0183 -12.6333,1.36232 -13.0664,5.8516 -0.5222,5.4134 1.5537,6.68816 14.8964,9.14767 19.7484,3.6403 24.9239,7.72769 24.9239,19.68353 0,3.66481 -0.6259,7.61222 -1.464,9.233 -2.0259,3.91761 -6.8884,7.7955 -11.317,9.02545 -4.4471,1.23508 -23.1781,1.20612 -28.4845,-0.044 z"
         id="path32" />
      <path
         style="fill:#515b6c;fill-opacity:1"
         d="m 814.58966,769.74999 c -2.071,-0.48793 -5.5585,-1.80188 -7.75,-2.91987 -3.469,-1.76974 -3.9845,-2.47368 -3.9845,-5.44098 0,-3.46849 2.0913,-6.5511 4.4444,-6.5511 0.7158,0 3.2956,0.88213 5.733,1.96029 5.6772,2.51129 18.9055,3.65357 24.5556,2.12041 4.4467,-1.20661 6.267,-3.3444 6.267,-7.35997 0,-4.09237 -3.2519,-5.83604 -15.5401,-8.3326 -18.127,-3.68283 -22.7811,-6.421 -24.5888,-14.46666 -2.156,-9.59541 1.5537,-17.45241 10.0051,-21.1909 8.4284,-3.72827 34.3557,-1.77087 38.2201,2.88546 1.4285,1.72115 0.3757,7.7474 -1.6466,9.42578 -1.2063,1.00109 -2.3194,0.90469 -5.7236,-0.49565 -2.5594,-1.05284 -7.9726,-1.9185 -13.7261,-2.19502 -11.6217,-0.55856 -14.3565,0.49905 -14.7985,5.72297 -0.4475,5.29009 1.7707,6.62661 14.8782,8.96441 19.5049,3.47881 24.9203,7.75093 24.9203,19.65902 0,3.66481 -0.6259,7.61222 -1.464,9.233 -2.0259,3.91761 -6.8884,7.7955 -11.317,9.02545 -4.4471,1.23508 -23.1781,1.20612 -28.4845,-0.044 z"
         id="path31" />
      <path
         style="fill:#515b6c;fill-opacity:1"
         d="m 734.61926,769.88992 c -5.1061,-1.62629 -9.3326,-4.93971 -11.8021,-9.25247 -2.3655,-4.13097 -2.462,-5.00459 -2.462,-22.29941 0,-17.98103 0,-18.0051 2.8449,-22.83996 2.1982,-3.73976 4.0167,-5.38558 8,-7.24023 4.5425,-2.11503 6.5932,-2.40143 17.2559,-2.41004 12.991,-0.0105 16.9871,0.84549 22.2681,4.76987 6.3075,4.68719 7.2992,8.85391 6.9439,29.17405 l -0.3128,17.88168 -3,4.24325 c -4.9427,6.99119 -8.82,8.38589 -24,8.63302 -7.15,0.11641 -14.2311,-0.18049 -15.7359,-0.65976 z m 27.9302,-13.4653 2.8057,-2.41341 v -15.56386 -15.56386 l -2.7254,-2.72543 c -2.5066,-2.50663 -3.47,-2.75399 -12,-3.08114 -15.9773,-0.61278 -18.6356,2.26833 -18.6943,20.26112 -0.064,19.80866 1.2708,21.5 16.9748,21.5 10.0103,0 11.0466,-0.18337 13.6392,-2.41342 z"
         id="path30" />
      <path
         style="fill:#515b6c;fill-opacity:1"
         d="m 647.60516,769.75794 c -2.0552,-1.19708 -2.431,-7.83881 -0.55,-9.7199 0.66,-0.66 3.81,-1.2 7,-1.2 h 5.8 v -20.5 -20.5 h -7.8 c -8.7445,0 -10.2,-0.80312 -10.2,-5.62857 0,-5.10585 2.0711,-6.37143 10.4264,-6.37143 h 7.2836 l 0.5794,-6.9112 c 0.7639,-9.11146 3.5049,-14.40332 8.9741,-17.32534 5.9405,-3.17382 19.9633,-3.14647 27.1117,0.0529 4.6732,2.09152 4.8492,2.31663 4.247,5.43279 -0.3455,1.78797 -1.5438,4.01173 -2.6629,4.94168 -1.839,1.52821 -2.4879,1.55329 -6.747,0.26083 -2.5917,-0.7865 -6.8498,-1.43487 -9.4623,-1.44083 -6.6562,-0.0152 -8.75,2.25546 -8.75,9.48918 v 5.5 h 11.3 c 12.6318,0 13.7,0.46785 13.7,6 0,5.53215 -1.0682,6 -13.7,6 h -11.3 v 20.45619 20.45619 l 7.2293,0.29381 c 6.7761,0.27539 7.2866,0.4574 8.1437,2.90338 1.6121,4.60082 0.1462,7.54303 -4.1086,8.24625 -6.1396,1.01475 -34.6072,0.6749 -36.5144,-0.43592 z"
         id="path29" />
    </g>
    <g
       id="g44"
       style="fill:#8a99ab;fill-opacity:1"
       transform="translate(13.116075,0.63797695)">
      <path
         style="fill:#8a99ab;fill-opacity:1"
         d="m 482.52186,769.1714 c -1.3912,-1.39122 -0.5931,-8.93704 1.2516,-11.83333 1.0509,-1.65 9.1459,-11.1 17.9889,-21 8.843,-9.9 16.0815,-18.3375 16.0855,-18.75 0,-0.4125 -7.5916,-0.75 -16.8792,-0.75 h -16.8865 l -0.3711,-2.75 c -0.2041,-1.5125 -0.2229,-3.77029 -0.042,-5.01731 l 0.3295,-2.26732 24.6782,0.26732 24.6781,0.26731 0.2954,5.05047 0.2953,5.05046 -13.2953,14.95842 c -7.3124,8.22713 -15.4785,17.53136 -18.1468,20.67605 l -4.8514,5.71763 17.8283,0.27348 17.8282,0.27349 0.9168,2.60957 c 0.5043,1.43526 0.6186,3.79776 0.2542,5.25 l -0.6628,2.64043 h -25.3142 c -13.9229,0 -25.6143,-0.3 -25.981,-0.66667 z"
         id="path36" />
      <path
         style="fill:#8a99ab;fill-opacity:1"
         d="m 319.85516,764.96194 c 0,-5.95505 0.3193,-6.12387 11.5818,-6.12387 h 8.4182 V 724.877 690.91594 l -8.75,-0.28894 -8.75,-0.28893 -0.3034,-4.71753 c -0.2771,-4.30688 -0.087,-4.77196 2.1878,-5.34281 1.3703,-0.34391 7.2849,-0.47102 13.1436,-0.28247 15.7006,0.50528 14.472,-3.0562 14.472,41.95359 v 36.88922 h 8.8776 c 10.1784,0 11.4244,0.761 10.937,6.68021 l -0.3146,3.81979 -25.75,0.26688 -25.75,0.26689 z"
         id="path35" />
      <path
         style="fill:#8a99ab;fill-opacity:1"
         d="m 407.35516,768.948 c -5.3604,-2.474 -8.1303,-5.69186 -9.5851,-11.1351 -2.581,-9.65714 1.131,-18.75923 9.3044,-22.81544 4.1639,-2.0664 6.2723,-2.35925 17.9986,-2.5 l 13.2821,-0.15942 0.3057,-4.77126 c 0.2671,-4.16936 -0.07,-5.14704 -2.6731,-7.75 -2.8594,-2.85946 -3.3322,-2.97786 -11.8056,-2.95678 -6.6228,0.0165 -9.9155,0.5159 -13.1862,2 -5.9317,2.69162 -7.6774,2.51091 -9.108,-0.94286 -1.8662,-4.50544 -0.9631,-6.36582 4.3741,-9.0108 4.0023,-1.98342 6.8597,-2.51106 15.5,-2.86221 13.1195,-0.5332 18.2514,0.7159 23.1718,5.64001 4.8748,4.87837 5.9213,10.22564 5.9213,30.25415 v 16.0018 l 3.5558,1.48567 c 3.3666,1.40666 3.5394,1.70973 3.25,5.69898 l -0.3058,4.2133 -5.845,0.30274 c -6.6755,0.34575 -10.2512,-1.346 -11.2492,-5.32228 l -0.626,-2.49424 -3.5672,3.13199 c -1.9619,1.72259 -5.0479,3.75069 -6.8577,4.50689 -4.8366,2.02084 -16.9803,1.7346 -21.8549,-0.51514 z m 20.5778,-9.25139 c 2.0953,-0.62779 5.41,-2.46055 7.366,-4.0728 3.2929,-2.7143 3.5562,-3.3409 3.5562,-8.4614 v -5.53002 l -12.42,0.35282 c -11.5192,0.32724 -12.6072,0.52869 -15,2.77714 -4.8033,4.51357 -2.9019,13.05845 3.42,15.36946 2.6284,0.9608 9.1418,0.74404 13.0778,-0.4352 z"
         id="path28" />
      <path
         style="fill:#8a99ab;fill-opacity:1"
         d="m 563.10516,794.34717 c -3.4748,-1.51033 -4.0037,-3.39644 -2.2475,-8.01568 0.9616,-2.52898 1.2228,-2.60922 6.3919,-1.96338 7.9807,0.99712 9.3547,0.21562 12.6897,-7.21734 1.6038,-3.57454 2.9159,-6.62973 2.9159,-6.78932 0,-0.15958 -0.801,-0.49963 -1.7801,-0.75567 -1.2997,-0.33986 -4.7968,-8.47718 -12.9566,-30.14805 -6.147,-16.32539 -10.9145,-30.36495 -10.5944,-31.19902 0.4367,-1.1382 1.8449,-1.44218 5.6451,-1.21858 l 5.0631,0.29791 4.1111,11 c 2.2611,6.05 6.3362,17.1875 9.0558,24.75 2.7195,7.5625 5.2294,13.75 5.5774,13.75 0.3481,0 3.9067,-9.3375 7.9081,-20.75 4.0014,-11.4125 8.0925,-22.68773 9.0915,-25.05607 1.8142,-4.30125 1.8215,-4.30574 6.5886,-4 6.1352,0.39347 6.3777,1.60629 2.4317,12.16033 -1.6751,4.48016 -7.816,21.39178 -13.6465,37.58138 -5.8306,16.1896 -11.3548,30.71166 -12.276,32.27124 -3.5276,5.97169 -16.0534,8.74259 -23.9688,5.30225 z"
         id="path1" />
    </g>
    <rect
       style="fill:#ffffff;fill-opacity:1;stroke-width:0.997352"
       id="rect47"
       width="900"
       height="600"
       x="1189.1925"
       y="243.28322" />
    <g
       id="g64"
       transform="translate(950.96351,-1.5380032)">
      <g
         id="g52"
         style="fill:#515d6f;fill-opacity:1">
        <path
           style="fill:#515d6f;fill-opacity:1"
           d="m 938.85516,516.82572 c -6.4307,-2.57943 -14.63,-3.32408 -21.9619,-1.99455 -8.969,1.6264 -9.6728,0.77429 -8.1217,-9.83383 0.6445,-4.40764 0.904,-10.1841 0.5766,-12.83658 -0.7882,-6.38683 1.5558,-10.10513 9.6806,-15.35647 10.9729,-7.09215 23.304,-9.21944 26.3646,-4.5483 4.1265,6.29782 7.3814,39.12689 4.4267,44.64782 -1.2839,2.39885 -4.8529,2.37343 -10.9649,-0.0781 z"
           id="path47" />
        <path
           style="fill:#515d6f;fill-opacity:1"
           d="m 912.53876,575.55761 c -4.2441,-6.63468 -10.8594,-12.50183 -18.0854,-16.04004 -7.2899,-3.56953 -7.4006,-5.74995 -0.7546,-14.86606 2.6639,-3.65405 5.4051,-7.99953 6.0915,-9.65662 1.4591,-3.52266 7.0199,-6.15682 12.9972,-6.15682 6.3111,0 18.8443,2.75109 24.6573,5.41235 7.6516,3.50303 8.3962,5.64332 4.9661,14.27436 -5.6052,14.10392 -19.2004,32.31329 -24.1253,32.31329 -1.7663,0 -3.2281,-1.34315 -5.7468,-5.28046 z"
           id="path48" />
        <path
           style="fill:#515d6f;fill-opacity:1"
           d="m 479.85516,606.14929 c -4.125,-0.82956 -13.6083,-1.57645 -21.0741,-1.65975 l -13.5741,-0.15147 -8.5597,-4.24088 c -17.5639,-8.70196 -27.7484,-25.27192 -27.7802,-45.19763 -0.01,-5.3559 0.9711,-11.143 3.4989,-20.66998 4.3743,-16.48633 5.1383,-20.51032 6.4644,-34.04886 3.4722,-35.44772 8.7072,-53.16393 21.2289,-71.84265 18.7269,-27.93487 56.1649,-47.48397 90.9602,-47.4968 l 8.6642,-0.003 3.2117,-5.25 c 7.7224,-12.6232 24.1324,-29.42086 38.9598,-39.87998 16.9418,-11.95054 19.9455,-12.36363 22.592,-3.10703 2.6156,9.14855 7.7124,19.16089 13.7812,27.07227 4.6084,6.00757 5.6268,8.03746 5.6268,11.21482 0,2.88821 0.5241,4.16003 2.051,4.97717 1.7042,0.91208 3.3524,0.38979 9.75,-3.08959 9.5082,-5.17114 11.199,-6.61867 11.199,-9.58752 0,-1.76537 -1.0435,-2.84201 -4.25,-4.38487 -5.1244,-2.46574 -9.4906,-8.14874 -14.8635,-19.34612 -8.2741,-17.24362 -7.4101,-26.31746 3.0044,-31.55166 12.6824,-6.37407 36.9239,-14.06749 44.3258,-14.06749 5.3943,0 5.6644,0.81942 5.0641,15.36157 -0.5503,13.32763 -0.4524,14.05972 3.9389,29.46179 1.0679,3.74552 1.002,4.72535 -0.4935,7.33104 -2.136,3.72182 -2.17,5.23235 -0.1553,6.90439 1.2857,1.06701 3.2373,1.07306 10.75,0.0333 13.9307,-1.92798 16.6967,-4.89127 10.8167,-11.58817 -3.969,-4.52051 -6.6522,-15.52515 -6.5842,-27.00393 0.064,-10.81686 3.032,-18.64197 8.5683,-22.59052 3.2564,-2.32251 3.9558,-2.40414 19.3783,-2.26156 24.4844,0.22635 30.5331,2.77281 26.8151,11.28891 -4.2818,9.80763 -5.5954,15.8142 -6.0689,27.7503 -0.4451,11.22207 -0.672,12.36429 -2.8648,14.42431 -2.5854,2.42885 -3.1222,6.05376 -1.1314,7.63896 0.6875,0.54741 5.6523,1.81281 11.0327,2.81199 l 9.7827,1.81671 2.1854,-2.18539 c 2.1477,-2.14773 2.154,-2.23849 0.3655,-5.26613 -5.3911,-9.12642 -0.6974,-35.93737 7.7746,-44.40938 4.7668,-4.76681 13.1056,-2.73278 35.5854,8.68013 11.3302,5.75231 16.0237,9.40215 16.0237,12.4605 0,0.85102 -1.9125,3.67486 -4.25,6.27521 -5.0248,5.58983 -9.1866,12.95447 -12.7086,22.48904 -1.9493,5.27679 -3.2689,7.31603 -5.5494,8.57555 -5.4634,3.01744 -4.5323,5.32742 4.1976,10.41419 11.0064,6.41328 13.535,6.07816 14.5488,-1.92815 1.367,-10.79616 11.2768,-27.11408 18.842,-31.02624 5.7028,-2.94903 8.0555,-2.06067 19.605,7.40292 12.298,10.07678 29.8527,27.79344 31.293,31.58162 1.4632,3.8486 0.1045,5.99579 -6.6413,10.49539 -3.9369,2.626 -8.231,6.81092 -11.8886,11.58623 -4.6625,6.08735 -6.2343,7.47541 -8.4646,7.47541 -1.5064,0 -3.3119,0.69034 -4.0121,1.53409 -1.659,1.99888 -0.4181,4.35465 5.9322,11.26197 6.0977,6.63271 9.0027,6.95496 11.5607,1.28242 3.2578,-7.2246 17.7191,-19.92172 24.5744,-21.5765 5.1213,-1.23622 7.6695,0.94446 16.0481,13.7331 8.3457,12.73852 17.9241,30.72347 17.8975,33.60545 -0.028,3.03155 -1.6145,4.25268 -7.5337,5.79839 -8.3627,2.18382 -13.05,4.83699 -19.6252,11.10872 -4.5974,4.38511 -6.2705,5.40049 -8.2695,5.01837 -1.6551,-0.3164 -3.0925,0.16906 -4.2334,1.42974 -1.4575,1.61054 -1.6867,3.65995 -1.4668,13.11604 0.5704,24.52171 -7.1023,43.55664 -25.1322,62.35013 -20.857,21.74024 -56.33,37.7845 -102.2239,46.23531 -25.9237,4.77356 -35.9461,5.36766 -98.4402,5.83521 -62.8222,0.47001 -73.7264,-0.0298 -83.33,-3.81989 -2.8764,-1.13515 -7.9298,-2.67192 -11.2298,-3.41504 l -6,-1.35114 -7.6268,3.91335 c -10.2724,5.27082 -26.3114,10.51902 -37.8732,12.39269 -11.9947,1.94385 -33.9829,1.87329 -44,-0.14119 z m 40.0977,-11.7698 c 12.3287,-1.85847 27.5049,-6.95889 37.4815,-12.59681 9.3771,-5.29912 24.7237,-20.0014 28.4498,-27.25534 2.0903,-4.06945 3.5497,-5.37836 9.471,-8.49449 9.7377,-5.12445 21.2693,-16.32405 25.9193,-25.1731 15.9592,-30.37039 6.7399,-71.63737 -22.3273,-99.94026 -12.8762,-12.53763 -29.2764,-21.45493 -47.092,-25.60535 -11.6804,-2.72114 -30.834,-2.33497 -43.2058,0.8711 -19.1954,4.97438 -36.2584,15.00477 -49.5713,29.14014 -8.8592,9.40656 -14.4315,18.26961 -19.5207,31.04881 -4.2613,10.70039 -6.1698,19.96457 -8.1713,39.66588 -1.7173,16.90381 -3.3904,25.85175 -7.722,41.298 -5.6084,19.9993 -3.6937,31.20492 7.3489,43.00951 7.4008,7.91141 15.5271,11.85894 24.3422,11.82474 7.5419,-0.0293 11.5772,-1.75346 18.7082,-7.99366 7.4589,-6.52705 13.4353,-9.67181 24.3138,-12.79364 18.6328,-5.34713 28.2474,-12.32231 34.5248,-25.04695 2.5565,-5.18224 3.9726,-7 5.4532,-7 4.8389,0 1.8268,13.11936 -5.2052,22.67165 -5.7676,7.83469 -13.9959,13.06201 -26.7566,16.99799 -11.801,3.63999 -16.2114,5.72656 -21.0103,9.94009 -6.5428,5.74461 -5.1006,6.4139 14.4721,6.71627 5.775,0.0892 14.819,-0.48885 20.0977,-1.28458 z m -68.03,-28.41499 c -3.9028,-7.29245 3.05,-21.27498 9.6933,-19.49368 4.011,1.07549 3.8776,4.75763 -0.4777,13.18678 -4.232,8.19052 -7.1418,10.18189 -9.2156,6.3069 z m 89.6943,-51.01072 c -10.6006,-3.49509 -21.5117,-12.32904 -25.4634,-20.6158 -2.4437,-5.12444 -0.7509,-6.30163 4.8325,-3.36063 6.0297,3.17612 16.6083,3.23034 22.5118,0.11537 5.9558,-3.14255 11.7659,-10.48241 16.0327,-20.25404 5.3096,-12.15984 8.1354,-16.14565 13.2932,-18.75061 2.4503,-1.2375 5.1472,-2.24832 5.9931,-2.24626 3.5555,0.009 8.2206,4.1532 10.6514,9.46273 9.3726,20.47234 1.1611,44.29797 -18.5241,53.74811 -8.5232,4.09165 -20.3568,4.85876 -29.3272,1.90113 z m 134.0903,68.02644 c 14.9874,-4.49656 22.4327,-9.91322 27.348,-19.89659 2.7834,-5.65337 3.2997,-7.80089 3.2997,-13.72384 0,-16.61921 -12.6301,-30.52172 -27.7284,-30.52172 -10.4377,0 -16.0715,3.83288 -24.2358,16.48856 -5.9295,9.19152 -10.1079,13.0175 -19.4997,17.8554 -6.8658,3.53663 -14.2052,5.78918 -25.0361,7.68378 -19.0968,3.34055 -28.9833,19.57027 -14.5813,23.93669 1.7361,0.52636 18.3614,0.81401 38.0813,0.65888 32.752,-0.25763 35.4723,-0.417 42.3523,-2.48116 z m 173.1507,-35.64501 c 4.0751,-3.97922 5.3621,-6.80345 6.5282,-14.32504 0.369,-2.38034 2.1957,-7.62808 4.0594,-11.66165 16.3068,-35.29406 16.9847,-66.69229 1.8026,-83.49708 -4.9887,-5.52183 -10.6626,-8.01337 -18.2487,-8.01337 -7.8268,0 -12.3385,2.19754 -18.4365,8.97997 -5.6909,6.32962 -8.1721,13.18924 -8.1459,22.52003 0.018,6.39583 0.5054,8.03572 5.6471,19 7.8925,16.83019 11.2443,34.9037 7.2194,38.92857 -0.8643,0.86429 -1.7874,1.57143 -2.0515,1.57143 -0.264,0 -5.9694,-2.8961 -12.6786,-6.43579 -19.6276,-10.3553 -33.3116,-12.7609 -48.5572,-8.53614 -9.8659,2.73399 -15.7954,5.88921 -22.3846,11.91139 -8.7625,8.00844 -10.9851,14.92298 -6.3021,19.60599 2.3878,2.3878 2.8623,2.45455 17.4488,2.45455 8.2468,0 20.3048,0.68119 26.7954,1.51377 15.3638,1.97074 42.7045,7.13089 47.8012,9.02175 2.378,0.88221 6.3393,1.35224 9.7686,1.15909 5.1462,-0.28986 6.1964,-0.74271 9.7344,-4.19747 z m -160.7575,-47.24714 c 7.1543,-8.04946 10.3243,-36.75407 6.3542,-57.5391 -3.8152,-19.97419 -13.8867,-40.27246 -27.0168,-54.45001 -9.1462,-9.87593 -13.7588,-10.38432 -26.4264,-2.91265 -4.8631,2.8684 -8.1565,6.77359 -8.1565,9.67169 0,0.61559 4.3951,5.70044 9.7669,11.29966 22.3402,23.28611 33.8294,49.42825 35.7907,81.43687 0.3284,5.35895 1.0883,10.75604 1.6887,11.99354 1.3385,2.75871 5.7467,3.03425 7.9992,0.5 z m 33.667,-7.90122 c 3.2349,-2.26584 8.7692,-14.64984 11.7219,-26.22989 3.452,-13.53845 4.2086,-31.96732 1.9107,-46.53999 -3.9147,-24.82624 -17.6282,-51.94553 -27.2395,-53.8678 -3.3585,-0.6717 -13.388,0.55439 -17.4546,2.13381 -3.0065,1.16763 -5.851,4.74497 -5.851,7.3583 0,0.96701 2.2017,5.03559 4.8927,9.04128 10.3281,15.37415 18.2937,34.40329 22.7113,54.25551 1.3786,6.19524 1.817,13.055 1.9432,30.4074 0.1488,20.47745 0.321,22.52304 1.999,23.75 2.3216,1.69762 2.5181,1.68632 5.3663,-0.30862 z m 35.6686,-10.83887 c 3.7288,-3.72884 12.0389,-21.7337 15.0048,-32.50991 2.1843,-7.93632 2.6977,-12.29817 3.1192,-26.5 0.4672,-15.7412 0.3117,-17.85058 -2.0989,-28.48698 -4.4482,-19.62715 -7.9589,-24.46286 -19.6062,-27.00572 -7.3737,-1.60986 -10.8943,-1.05621 -13.2246,2.07972 l -1.9225,2.58702 4.1622,9.74189 c 2.2892,5.35804 5.5519,14.99389 7.2504,21.41298 2.9796,11.26078 3.0903,12.42695 3.1473,33.17109 0.056,20.32083 -0.8902,30.14173 -4.0126,41.65755 -0.3888,1.43366 0.117,2.85959 1.5074,4.25 2.6911,2.69107 3.6414,2.63444 6.6735,-0.39764 z m 31.1988,-7.06828 c 3.2302,-2.26252 9.8865,-12.4528 14.3353,-21.94622 6.1572,-13.13919 9.1625,-27.31773 9.2193,-43.49541 0.058,-16.47728 -0.8978,-19.11461 -8.6037,-23.74145 -6.4273,-3.85921 -9.9065,-4.77002 -12.6376,-3.3084 -2.5301,1.35408 -2.6446,4.28002 -0.6084,15.54985 3.4978,19.35914 1.1889,40.79086 -7.6863,71.34401 -1.1499,3.95865 -1.0912,4.46873 0.661,5.75 2.4029,1.75705 2.6025,1.75133 5.3204,-0.15238 z"
           id="path49" />
        <path
           style="fill:#515d6f;fill-opacity:1"
           d="m 861.89036,610.90381 c -0.5693,-1.06384 -1.0395,-2.75134 -1.0449,-3.75 -0.017,-3.08699 -4.6146,-11.89417 -8.3931,-16.0765 -5.3059,-5.87299 -4.6509,-8.69539 2.9047,-12.516 1.651,-0.83486 6.5158,-4.03913 10.8107,-7.12059 10.3032,-7.39218 12.1819,-7.40311 21.4836,-0.12502 11.7138,9.16537 17.3033,18.67692 13.9632,23.76069 -2.0028,3.04832 -15.056,10.3875 -25.6355,14.41352 -10.0154,3.81137 -12.6634,4.07711 -14.0887,1.4139 z"
           id="path50" />
        <path
           style="fill:#515d6f;fill-opacity:1"
           d="m 805.93956,623.67358 c -1.6695,-0.61759 -2.0844,-1.62637 -2.0844,-5.06809 0,-2.38652 -0.8892,-5.95615 -2,-8.0286 -2.2896,-4.27203 -2.5556,-7.26118 -0.75,-8.4298 3.1319,-2.02696 28.6037,-10.59652 31.5755,-10.62302 3.8916,-0.0347 6.3598,2.56516 11.1118,11.70447 3.7964,7.30138 4.0992,12.89518 0.8127,15.01415 -3.9935,2.57489 -34.7196,6.89061 -38.6656,5.43089 z"
           id="path51" />
        <path
           style="fill:#515d6f;fill-opacity:1"
           d="m 744.18406,623.65278 c -5.1616,-2.49615 -3.1559,-10.25154 2.9136,-11.26539 1.7916,-0.29928 8.8825,-1.48599 15.7575,-2.63712 20.3787,-3.41217 20.4946,-3.41766 22.8304,-1.08183 2.9498,2.9498 4.5724,9.5387 3.0574,12.41545 -0.653,1.2398 -1.6823,2.58479 -2.2875,2.98887 -1.7282,1.15396 -39.7988,0.77571 -42.2714,-0.41998 z"
           id="path52" />
      </g>
      <g
         id="g59"
         style="fill:#212434;fill-opacity:1">
        <path
           style="fill:#212434;fill-opacity:1"
           d="m 977.92776,692.20321 c -5.9006,-7.50147 2.9365,-17.24963 10.7049,-11.80844 2.9386,2.05824 3.191,10.25686 0.3938,12.78831 -2.9251,2.64721 -8.6427,2.14242 -11.0987,-0.97987 z"
           id="path53" />
        <path
           style="fill:#212434;fill-opacity:1"
           d="m 1031.1034,769.68618 c -1.8627,-1.86267 -1.6141,-9.49371 0.3336,-10.24112 0.87,-0.33384 5.37,-0.60699 10,-0.60699 h 8.4182 v -33.5 -33.5 h -7.8775 c -9.2243,0 -10.3893,-0.84161 -9.9336,-7.17609 l 0.3111,-4.32391 12.6037,-0.27878 c 11.2307,-0.24842 12.8647,-0.0675 15,1.6608 l 2.3963,1.9396 0.2848,37.58919 0.2848,37.58919 h 8.7652 c 9.7032,0 11.1737,0.71877 11.1499,5.45 -0.031,6.11993 0.3735,6.02198 -26.1988,6.34811 -18.4095,0.22595 -24.5918,-0.004 -25.5377,-0.95 z"
           id="path54" />
        <path
           style="fill:#212434;fill-opacity:1"
           d="m 961.10416,769.68699 c -1.5918,-1.59175 -1.6246,-8.07323 -0.049,-9.64892 0.7251,-0.72501 4.2402,-1.2 8.8806,-1.2 h 7.6805 l 0.7214,-10.5833 c 0.3968,-5.82081 0.402,-15.04581 0.012,-20.5 l -0.7098,-9.9167 h -6.3103 c -8.9531,0 -9.474,-0.3347 -9.474,-6.08794 0,-6.00065 0.6448,-6.24748 15.0378,-5.75739 14.6713,0.49956 13.9622,-0.97102 13.9622,28.95611 v 23.88922 h 7.8 c 4.73344,0 8.27184,0.4718 9.00004,1.2 1.8897,1.88963 1.5096,8.56524 -0.55,9.65911 -2.8287,1.50243 -44.49764,1.4932 -46.00104,-0.0102 z"
           id="path55" />
        <path
           style="fill:#212434;fill-opacity:1"
           d="m 893.58966,769.74999 c -5.0623,-1.19267 -11.7005,-4.65984 -12.3971,-6.47509 -0.8873,-2.31239 1.6932,-7.40642 4.0518,-7.99839 1.1748,-0.29485 4.169,0.36322 6.6538,1.46237 8.8825,3.92918 25.1119,3.94431 29.0291,0.0271 2.4761,-2.47607 2.4729,-7.12473 -0.01,-9.36845 -1.1249,-1.01796 -6.879,-2.77978 -13.75,-4.21006 -20.2802,-4.22149 -24.8303,-7.74049 -24.7954,-19.17629 0.026,-8.55197 2.1786,-12.3459 8.9067,-15.69862 4.3881,-2.1867 6.2592,-2.4745 16.0878,-2.4745 10.7594,0 20.1522,1.70773 23.2351,4.22448 1.8313,1.49486 1.5246,6.21496 -0.572,8.80411 l -1.8221,2.25017 -6.1819,-2.13938 c -4.2722,-1.47849 -8.5748,-2.13483 -13.9279,-2.12464 -9.6323,0.0183 -12.6333,1.36232 -13.0664,5.8516 -0.5222,5.4134 1.5537,6.68816 14.8964,9.14767 19.7484,3.6403 24.9239,7.72769 24.9239,19.68353 0,3.66481 -0.6259,7.61222 -1.464,9.233 -2.0259,3.91761 -6.8884,7.7955 -11.317,9.02545 -4.4471,1.23508 -23.1781,1.20612 -28.4845,-0.044 z"
           id="path56" />
        <path
           style="fill:#212434;fill-opacity:1"
           d="m 814.58966,769.74999 c -2.071,-0.48793 -5.5585,-1.80188 -7.75,-2.91987 -3.469,-1.76974 -3.9845,-2.47368 -3.9845,-5.44098 0,-3.46849 2.0913,-6.5511 4.4444,-6.5511 0.7158,0 3.2956,0.88213 5.733,1.96029 5.6772,2.51129 18.9055,3.65357 24.5556,2.12041 4.4467,-1.20661 6.267,-3.3444 6.267,-7.35997 0,-4.09237 -3.2519,-5.83604 -15.5401,-8.3326 -18.127,-3.68283 -22.7811,-6.421 -24.5888,-14.46666 -2.156,-9.59541 1.5537,-17.45241 10.0051,-21.1909 8.4284,-3.72827 34.3557,-1.77087 38.2201,2.88546 1.4285,1.72115 0.3757,7.7474 -1.6466,9.42578 -1.2063,1.00109 -2.3194,0.90469 -5.7236,-0.49565 -2.5594,-1.05284 -7.9726,-1.9185 -13.7261,-2.19502 -11.6217,-0.55856 -14.3565,0.49905 -14.7985,5.72297 -0.4475,5.29009 1.7707,6.62661 14.8782,8.96441 19.5049,3.47881 24.9203,7.75093 24.9203,19.65902 0,3.66481 -0.6259,7.61222 -1.464,9.233 -2.0259,3.91761 -6.8884,7.7955 -11.317,9.02545 -4.4471,1.23508 -23.1781,1.20612 -28.4845,-0.044 z"
           id="path57" />
        <path
           style="fill:#212434;fill-opacity:1"
           d="m 734.61926,769.88992 c -5.1061,-1.62629 -9.3326,-4.93971 -11.8021,-9.25247 -2.3655,-4.13097 -2.462,-5.00459 -2.462,-22.29941 0,-17.98103 0,-18.0051 2.8449,-22.83996 2.1982,-3.73976 4.0167,-5.38558 8,-7.24023 4.5425,-2.11503 6.5932,-2.40143 17.2559,-2.41004 12.991,-0.0105 16.9871,0.84549 22.2681,4.76987 6.3075,4.68719 7.2992,8.85391 6.9439,29.17405 l -0.3128,17.88168 -3,4.24325 c -4.9427,6.99119 -8.82,8.38589 -24,8.63302 -7.15,0.11641 -14.2311,-0.18049 -15.7359,-0.65976 z m 27.9302,-13.4653 2.8057,-2.41341 v -15.56386 -15.56386 l -2.7254,-2.72543 c -2.5066,-2.50663 -3.47,-2.75399 -12,-3.08114 -15.9773,-0.61278 -18.6356,2.26833 -18.6943,20.26112 -0.064,19.80866 1.2708,21.5 16.9748,21.5 10.0103,0 11.0466,-0.18337 13.6392,-2.41342 z"
           id="path58" />
        <path
           style="fill:#212434;fill-opacity:1"
           d="m 647.60516,769.75794 c -2.0552,-1.19708 -2.431,-7.83881 -0.55,-9.7199 0.66,-0.66 3.81,-1.2 7,-1.2 h 5.8 v -20.5 -20.5 h -7.8 c -8.7445,0 -10.2,-0.80312 -10.2,-5.62857 0,-5.10585 2.0711,-6.37143 10.4264,-6.37143 h 7.2836 l 0.5794,-6.9112 c 0.7639,-9.11146 3.5049,-14.40332 8.9741,-17.32534 5.9405,-3.17382 19.9633,-3.14647 27.1117,0.0529 4.6732,2.09152 4.8492,2.31663 4.247,5.43279 -0.3455,1.78797 -1.5438,4.01173 -2.6629,4.94168 -1.839,1.52821 -2.4879,1.55329 -6.747,0.26083 -2.5917,-0.7865 -6.8498,-1.43487 -9.4623,-1.44083 -6.6562,-0.0152 -8.75,2.25546 -8.75,9.48918 v 5.5 h 11.3 c 12.6318,0 13.7,0.46785 13.7,6 0,5.53215 -1.0682,6 -13.7,6 h -11.3 v 20.45619 20.45619 l 7.2293,0.29381 c 6.7761,0.27539 7.2866,0.4574 8.1437,2.90338 1.6121,4.60082 0.1462,7.54303 -4.1086,8.24625 -6.1396,1.01475 -34.6072,0.6749 -36.5144,-0.43592 z"
           id="path59" />
      </g>
      <g
         id="g63"
         style="fill:#546172;fill-opacity:1">
        <path
           style="fill:#546172;fill-opacity:1"
           d="m 482.52186,769.1714 c -1.3912,-1.39122 -0.5931,-8.93704 1.2516,-11.83333 1.0509,-1.65 9.1459,-11.1 17.9889,-21 8.843,-9.9 16.0815,-18.3375 16.0855,-18.75 0,-0.4125 -7.5916,-0.75 -16.8792,-0.75 h -16.8865 l -0.3711,-2.75 c -0.2041,-1.5125 -0.2229,-3.77029 -0.042,-5.01731 l 0.3295,-2.26732 24.6782,0.26732 24.6781,0.26731 0.2954,5.05047 0.2953,5.05046 -13.2953,14.95842 c -7.3124,8.22713 -15.4785,17.53136 -18.1468,20.67605 l -4.8514,5.71763 17.8283,0.27348 17.8282,0.27349 0.9168,2.60957 c 0.5043,1.43526 0.6186,3.79776 0.2542,5.25 l -0.6628,2.64043 h -25.3142 c -13.9229,0 -25.6143,-0.3 -25.981,-0.66667 z"
           id="path60" />
        <path
           style="fill:#546172;fill-opacity:1"
           d="m 319.85516,764.96194 c 0,-5.95505 0.3193,-6.12387 11.5818,-6.12387 h 8.4182 V 724.877 690.91594 l -8.75,-0.28894 -8.75,-0.28893 -0.3034,-4.71753 c -0.2771,-4.30688 -0.087,-4.77196 2.1878,-5.34281 1.3703,-0.34391 7.2849,-0.47102 13.1436,-0.28247 15.7006,0.50528 14.472,-3.0562 14.472,41.95359 v 36.88922 h 8.8776 c 10.1784,0 11.4244,0.761 10.937,6.68021 l -0.3146,3.81979 -25.75,0.26688 -25.75,0.26689 z"
           id="path61" />
        <path
           style="fill:#546172;fill-opacity:1"
           d="m 407.35516,768.948 c -5.3604,-2.474 -8.1303,-5.69186 -9.5851,-11.1351 -2.581,-9.65714 1.131,-18.75923 9.3044,-22.81544 4.1639,-2.0664 6.2723,-2.35925 17.9986,-2.5 l 13.2821,-0.15942 0.3057,-4.77126 c 0.2671,-4.16936 -0.07,-5.14704 -2.6731,-7.75 -2.8594,-2.85946 -3.3322,-2.97786 -11.8056,-2.95678 -6.6228,0.0165 -9.9155,0.5159 -13.1862,2 -5.9317,2.69162 -7.6774,2.51091 -9.108,-0.94286 -1.8662,-4.50544 -0.9631,-6.36582 4.3741,-9.0108 4.0023,-1.98342 6.8597,-2.51106 15.5,-2.86221 13.1195,-0.5332 18.2514,0.7159 23.1718,5.64001 4.8748,4.87837 5.9213,10.22564 5.9213,30.25415 v 16.0018 l 3.5558,1.48567 c 3.3666,1.40666 3.5394,1.70973 3.25,5.69898 l -0.3058,4.2133 -5.845,0.30274 c -6.6755,0.34575 -10.2512,-1.346 -11.2492,-5.32228 l -0.626,-2.49424 -3.5672,3.13199 c -1.9619,1.72259 -5.0479,3.75069 -6.8577,4.50689 -4.8366,2.02084 -16.9803,1.7346 -21.8549,-0.51514 z m 20.5778,-9.25139 c 2.0953,-0.62779 5.41,-2.46055 7.366,-4.0728 3.2929,-2.7143 3.5562,-3.3409 3.5562,-8.4614 v -5.53002 l -12.42,0.35282 c -11.5192,0.32724 -12.6072,0.52869 -15,2.77714 -4.8033,4.51357 -2.9019,13.05845 3.42,15.36946 2.6284,0.9608 9.1418,0.74404 13.0778,-0.4352 z"
           id="path62" />
        <path
           style="fill:#546172;fill-opacity:1"
           d="m 563.10516,794.34717 c -3.4748,-1.51033 -4.0037,-3.39644 -2.2475,-8.01568 0.9616,-2.52898 1.2228,-2.60922 6.3919,-1.96338 7.9807,0.99712 9.3547,0.21562 12.6897,-7.21734 1.6038,-3.57454 2.9159,-6.62973 2.9159,-6.78932 0,-0.15958 -0.801,-0.49963 -1.7801,-0.75567 -1.2997,-0.33986 -4.7968,-8.47718 -12.9566,-30.14805 -6.147,-16.32539 -10.9145,-30.36495 -10.5944,-31.19902 0.4367,-1.1382 1.8449,-1.44218 5.6451,-1.21858 l 5.0631,0.29791 4.1111,11 c 2.2611,6.05 6.3362,17.1875 9.0558,24.75 2.7195,7.5625 5.2294,13.75 5.5774,13.75 0.3481,0 3.9067,-9.3375 7.9081,-20.75 4.0014,-11.4125 8.0925,-22.68773 9.0915,-25.05607 1.8142,-4.30125 1.8215,-4.30574 6.5886,-4 6.1352,0.39347 6.3777,1.60629 2.4317,12.16033 -1.6751,4.48016 -7.816,21.39178 -13.6465,37.58138 -5.8306,16.1896 -11.3548,30.71166 -12.276,32.27124 -3.5276,5.97169 -16.0534,8.74259 -23.9688,5.30225 z"
           id="path63" />
      </g>
    </g>
  </g>
</svg>
